<svg width="117" height="121" viewBox="0 0 117 121" fill="none" xmlns="http://www.w3.org/2000/svg">
<path d="M4.14404 60.1416C40.4155 84.0552 26.838 104.16 51.0117 120.479" stroke="#898989" stroke-width="0.8"/>
<path d="M23.2556 57.0337C23.9484 57.6105 22.5544 60.7077 20.1419 63.9515C17.7293 67.1953 15.2119 69.3574 14.519 68.7806C13.8261 68.2039 15.2202 65.1067 17.6327 61.8629C20.0452 58.619 22.5627 56.457 23.2556 57.0337Z" fill="#CF0000" fill-opacity="0.5"/>
<path d="M14.8434 68.807C14.9937 69.8819 11.8536 71.2048 7.82986 71.7618C3.8061 72.3187 0.422371 71.8989 0.272096 70.824C0.121822 69.7491 3.26191 68.4262 7.28567 67.8692C11.3094 67.3123 14.6932 67.7321 14.8434 68.807Z" fill="#CF0000" fill-opacity="0.5"/>
<path d="M31.4273 63.2084C32.1202 63.7852 30.7261 66.8824 28.3136 70.1262C25.9011 73.37 23.3836 75.5321 22.6907 74.9553C21.9979 74.3786 23.3919 71.2814 25.8044 68.0376C28.217 64.7937 30.7344 62.6317 31.4273 63.2084Z" fill="#560048" fill-opacity="0.5"/>
<path d="M22.5848 74.4236C22.735 75.4985 19.595 76.8213 15.5712 77.3783C11.5474 77.9353 8.1637 77.5154 8.01343 76.4405C7.86315 75.3656 11.0032 74.0428 15.027 73.4858C19.0508 72.9288 22.4345 73.3487 22.5848 74.4236Z" fill="#560048" fill-opacity="0.5"/>
<path d="M37.7964 74.0675C38.4893 74.6443 37.0953 77.7414 34.6827 80.9853C32.2702 84.2291 29.7528 86.3912 29.0599 85.8144C28.367 85.2376 29.761 82.1405 32.1736 78.8966C34.5861 75.6528 37.1036 73.4908 37.7964 74.0675Z" fill="#0CD3FF" fill-opacity="0.5"/>
<path d="M28.954 85.2826C29.1043 86.3575 25.9642 87.6804 21.9405 88.2373C17.9167 88.7943 14.533 88.3745 14.3827 87.2996C14.2324 86.2247 17.3725 84.9018 21.3963 84.3448C25.42 83.7879 28.8038 84.2077 28.954 85.2826Z" fill="#0CD3FF" fill-opacity="0.5"/>
<path d="M45.3776 87.3773C46.0705 87.954 44.6765 91.0512 42.2639 94.295C39.8514 97.5388 37.3339 99.7009 36.6411 99.1242C35.9482 98.5474 37.3422 95.4502 39.7548 92.2064C42.1673 88.9626 44.6847 86.8005 45.3776 87.3773Z" fill="#007DF1" fill-opacity="0.5"/>
<path d="M36.9654 99.1506C37.1157 100.225 33.9756 101.548 29.9518 102.105C25.928 102.662 22.5443 102.242 22.394 101.168C22.2438 100.093 25.3839 98.7698 29.4076 98.2128C33.4314 97.6559 36.8151 98.0757 36.9654 99.1506Z" fill="#007DF1" fill-opacity="0.5"/>
<path d="M51.1265 99.27C51.8194 99.8468 50.4254 102.944 48.0128 106.188C45.6003 109.432 43.0828 111.594 42.39 111.017C41.6971 110.44 43.0911 107.343 45.5037 104.099C47.9162 100.855 50.4336 98.6933 51.1265 99.27Z" fill="#00FF75" fill-opacity="0.5"/>
<path d="M42.3288 110.749C42.4791 111.824 39.339 113.147 35.3152 113.704C31.2914 114.261 27.9077 113.841 27.7574 112.766C27.6072 111.691 30.7473 110.368 34.771 109.811C38.7948 109.254 42.1785 109.674 42.3288 110.749Z" fill="#00FF75" fill-opacity="0.5"/>
<path d="M113 82C92.8873 82 85.7887 106.182 71 120" stroke="#898989" stroke-width="0.8"/>
<path d="M100.412 73.5146C99.8344 73.8988 100.462 76.4626 101.814 79.241C103.166 82.0194 104.73 83.9602 105.307 83.576C105.884 83.1918 105.257 80.628 103.905 77.8496C102.553 75.0712 100.989 73.1304 100.412 73.5146Z" fill="#349EFF" fill-opacity="0.5"/>
<path d="M105.451 83.1696C105.207 83.9973 107.329 85.3413 110.193 86.1716C113.056 87.0018 115.575 87.0039 115.819 86.1762C116.063 85.3484 113.94 84.0044 111.077 83.1741C108.214 82.3439 105.695 82.3418 105.451 83.1696Z" fill="#349EFF" fill-opacity="0.5"/>
<path d="M93.522 76.1799C92.9447 76.5641 93.5724 79.1279 94.9242 81.9063C96.276 84.6847 97.8399 86.6255 98.4172 86.2413C98.9946 85.857 98.3668 83.2933 97.015 80.5149C95.6633 77.7365 94.0994 75.7957 93.522 76.1799Z" fill="#AF74A6" fill-opacity="0.5"/>
<path d="M98.561 85.8349C98.3167 86.6627 100.44 88.0067 103.303 88.837C106.166 89.6672 108.685 89.6693 108.929 88.8415C109.174 88.0138 107.051 86.6698 104.187 85.8395C101.324 85.0093 98.8054 85.0072 98.561 85.8349Z" fill="#AF74A6" fill-opacity="0.5"/>
<path d="M87.518 84.0674C86.9406 84.4516 87.5684 87.0154 88.9202 89.7937C90.272 92.5721 91.8358 94.5129 92.4132 94.1287C92.9906 93.7445 92.3628 91.1807 91.011 88.4023C89.6592 85.624 88.0954 83.6831 87.518 84.0674Z" fill="#DD0CFF" fill-opacity="0.5"/>
<path d="M91.8801 93.3911C91.6358 94.2188 93.7588 95.5629 96.6219 96.3931C99.485 97.2234 102.004 97.2254 102.248 96.3977C102.493 95.57 100.37 94.2259 97.5066 93.3957C94.6435 92.5654 92.1244 92.5634 91.8801 93.3911Z" fill="#DD0CFF" fill-opacity="0.5"/>
<path d="M79.3802 93.2255C78.8028 93.6097 79.4306 96.1735 80.7824 98.9518C82.1342 101.73 83.698 103.671 84.2754 103.287C84.8528 102.903 84.225 100.339 82.8732 97.5604C81.5214 94.7821 79.9575 92.8412 79.3802 93.2255Z" fill="#408B1D" fill-opacity="0.5"/>
<path d="M84.4193 102.88C84.175 103.708 86.298 105.052 89.161 105.883C92.0241 106.713 94.5432 106.715 94.7875 105.887C95.0318 105.059 92.9089 103.715 90.0458 102.885C87.1827 102.055 84.6636 102.053 84.4193 102.88Z" fill="#408B1D" fill-opacity="0.5"/>
<path d="M74.6418 102.515C74.0644 102.899 74.6922 105.463 76.044 108.242C77.3958 111.02 78.9596 112.961 79.537 112.577C80.1144 112.192 79.4866 109.629 78.1348 106.85C76.783 104.072 75.2191 102.131 74.6418 102.515Z" fill="#FF007A" fill-opacity="0.5"/>
<path d="M79.6809 112.17C79.4366 112.998 81.5596 114.342 84.4226 115.172C87.2857 116.002 89.8048 116.005 90.0491 115.177C90.2934 114.349 88.1705 113.005 85.3074 112.175C82.4443 111.345 79.9252 111.342 79.6809 112.17Z" fill="#FF007A" fill-opacity="0.5"/>
<path d="M92.553 25.1353C79.7294 37.477 71.3662 96.3803 64.4678 120.226" stroke="#898989" stroke-width="0.8"/>
<path d="M98.2013 30.7315C98.2449 31.8104 95.7411 33.1018 92.6089 33.6159C89.4767 34.13 86.9023 33.6722 86.8587 32.5934C86.8151 31.5145 89.3189 30.2232 92.4511 29.709C95.5833 29.1949 98.1578 29.6527 98.2013 30.7315Z" fill="#F35757" fill-opacity="0.5"/>
<path d="M94.8996 42.254C94.9432 43.3328 92.4393 44.6242 89.3072 45.1383C86.175 45.6524 83.6005 45.1946 83.5569 44.1158C83.5134 43.0369 86.0172 41.7456 89.1494 41.2314C92.2815 40.7173 94.856 41.1751 94.8996 42.254Z" fill="#204EA6" fill-opacity="0.5"/>
<path d="M86.9469 33.6272C86.2704 34.9126 83.5175 33.1976 80.7979 29.7965C78.0784 26.3955 76.4221 22.5964 77.0986 21.311C77.775 20.0256 80.528 21.7406 83.2475 25.1417C85.967 28.5427 87.6233 32.3418 86.9469 33.6272Z" fill="#F35757" fill-opacity="0.5"/>
<path d="M83.802 43.5903C83.2724 44.5966 80.8409 42.9084 78.3711 39.8196C75.9012 36.7307 74.3283 33.411 74.8578 32.4047C75.3874 31.3984 77.8189 33.0866 80.2887 36.1755C82.7586 39.2643 84.3315 42.584 83.802 43.5903Z" fill="#204EA6" fill-opacity="0.5"/>
<path d="M91.5984 53.7768C91.642 54.8557 89.1382 56.147 86.006 56.6612C82.8738 57.1753 80.2994 56.7175 80.2558 55.6386C80.2122 54.5598 82.716 53.2684 85.8482 52.7543C88.9804 52.2402 91.5549 52.698 91.5984 53.7768Z" fill="#E8D000" fill-opacity="0.5"/>
<path d="M80.5008 55.1131C79.9713 56.1194 77.5398 54.4312 75.0699 51.3424C72.6 48.2536 71.0271 44.9338 71.5567 43.9275C72.0862 42.9213 74.5177 44.6095 76.9876 47.6983C79.4575 50.7871 81.0304 54.1068 80.5008 55.1131Z" fill="#E8D000" fill-opacity="0.5"/>
<path d="M88.2966 65.2996C88.3401 66.3784 85.8363 67.6698 82.7041 68.1839C79.5719 68.6981 76.9975 68.2403 76.9539 67.1614C76.9103 66.0826 79.4141 64.7912 82.5463 64.2771C85.6785 63.7629 88.253 64.2207 88.2966 65.2996Z" fill="#C62A2A" fill-opacity="0.5"/>
<path d="M77.199 66.6356C76.6694 67.6419 74.2379 65.9536 71.768 62.8648C69.2982 59.776 67.7252 56.4563 68.2548 55.45C68.7843 54.4437 71.2158 56.1319 73.6857 59.2207C76.1556 62.3095 77.7285 65.6293 77.199 66.6356Z" fill="#C62A2A" fill-opacity="0.5"/>
<path d="M86.8656 72.9006C86.9092 73.9795 84.4054 75.2709 81.2732 75.785C78.141 76.2991 75.5666 75.8413 75.523 74.7625C75.4794 73.6836 77.9832 72.3923 81.1154 71.8781C84.2476 71.364 86.8221 71.8218 86.8656 72.9006Z" fill="#9533AD" fill-opacity="0.5"/>
<path d="M75.7682 74.2366C75.2386 75.2429 72.8071 73.5547 70.3373 70.4659C67.8674 67.3771 66.2944 64.0574 66.824 63.0511C67.3536 62.0448 69.7851 63.733 72.2549 66.8218C74.7248 69.9106 76.2977 73.2303 75.7682 74.2366Z" fill="#9533AD" fill-opacity="0.5"/>
<path d="M85.1478 85.2382C85.1913 86.317 82.6875 87.6084 79.5553 88.1225C76.4231 88.6367 73.8487 88.1789 73.8051 87.1C73.7615 86.0212 76.2653 84.7298 79.3975 84.2157C82.5297 83.7015 85.1042 84.1593 85.1478 85.2382Z" fill="#84E448" fill-opacity="0.5"/>
<path d="M74.0503 86.5742C73.5207 87.5805 71.0892 85.8922 68.6194 82.8034C66.1495 79.7146 64.5766 76.3949 65.1061 75.3886C65.6357 74.3823 68.0672 76.0705 70.537 79.1593C73.0069 82.2481 74.5798 85.5679 74.0503 86.5742Z" fill="#84E448" fill-opacity="0.5"/>
<path d="M57.985 7.18384C61.9355 103.257 55.0853 103.836 60.2152 119.942" stroke="#898989" stroke-width="0.8"/>
<path d="M68.6961 87.7901C68.939 88.6623 66.6129 90.4869 63.5005 91.8655C60.3882 93.244 57.6682 93.6546 57.4252 92.7824C57.1823 91.9102 59.5084 90.0856 62.6208 88.7071C65.7331 87.3285 68.4531 86.918 68.6961 87.7901Z" fill="#6966FF" fill-opacity="0.5"/>
<path d="M57.5793 92.276C57.2221 93.2636 54.4223 92.6206 51.3257 90.8397C48.2292 89.0589 46.0085 86.8146 46.3657 85.8269C46.7229 84.8392 49.5227 85.4823 52.6193 87.2631C55.7158 89.044 57.9365 91.2883 57.5793 92.276Z" fill="#6966FF" fill-opacity="0.5"/>
<path d="M70.8435 98.993C70.9128 99.91 67.7779 100.997 63.8415 101.42C59.9051 101.844 56.6579 101.444 56.5886 100.527C56.5193 99.6099 59.6542 98.5231 63.5906 98.0996C67.5269 97.676 70.7742 98.076 70.8435 98.993Z" fill="#960051" fill-opacity="0.5"/>
<path d="M56.8898 100.081C56.2366 100.934 53.1528 99.4889 50.0021 96.8535C46.8513 94.218 44.8267 91.3902 45.4799 90.5373C46.1331 89.6844 49.2168 91.1294 52.3676 93.7648C55.5183 96.4003 57.543 99.2281 56.8898 100.081Z" fill="#960051" fill-opacity="0.5"/>
<path d="M70.9084 3.75157C71.1983 4.62374 68.4224 6.44832 64.7083 7.8269C60.9941 9.20547 57.7482 9.61599 57.4583 8.74382C57.1684 7.87165 59.9443 6.04706 63.6584 4.66849C67.3726 3.28991 70.6185 2.87939 70.9084 3.75157Z" fill="#69DB24" fill-opacity="0.5"/>
<path d="M57.6422 8.23738C57.2159 9.22503 53.8747 8.58201 50.1794 6.80115C46.4841 5.02029 43.834 2.77596 44.2603 1.78831C44.6866 0.800652 48.0277 1.44367 51.723 3.22453C55.4183 5.0054 58.0684 7.24972 57.6422 8.23738Z" fill="#69DB24" fill-opacity="0.5"/>
<path d="M70.9084 21.4265C71.1983 22.2987 68.4224 24.1233 64.7083 25.5018C60.9941 26.8804 57.7482 27.2909 57.4583 26.4187C57.1684 25.5466 59.9443 23.722 63.6584 22.3434C67.3726 20.9648 70.6185 20.5543 70.9084 21.4265Z" fill="#FF0000" fill-opacity="0.5"/>
<path d="M57.6422 25.9123C57.2159 26.8999 53.8747 26.2569 50.1794 24.4761C46.4841 22.6952 43.834 20.4509 44.2603 19.4632C44.6866 18.4756 48.0277 19.1186 51.723 20.8994C55.4183 22.6803 58.0684 24.9246 57.6422 25.9123Z" fill="#FF0000" fill-opacity="0.5"/>
<path d="M71.9601 31.7634C72.25 32.6355 69.4741 34.4601 65.7599 35.8387C62.0458 37.2173 58.7998 37.6278 58.5099 36.7556C58.22 35.8835 60.9959 34.0589 64.7101 32.6803C68.4242 31.3017 71.6702 30.8912 71.9601 31.7634Z" fill="#E7D000" fill-opacity="0.5"/>
<path d="M58.7575 37.2996C58.3313 38.2872 54.9901 37.6442 51.2948 35.8634C47.5995 34.0825 44.9494 31.8382 45.3756 30.8505C45.8019 29.8629 49.1431 30.5059 52.8384 32.2867C56.5337 34.0676 59.1838 36.3119 58.7575 37.2996Z" fill="#E7D000" fill-opacity="0.5"/>
<path d="M71.9601 41.8611C72.25 42.7333 69.4741 44.5579 65.7599 45.9364C62.0458 47.315 58.7998 47.7255 58.5099 46.8533C58.22 45.9812 60.9959 44.1566 64.7101 42.778C68.4242 41.3994 71.6702 40.9889 71.9601 41.8611Z" fill="#05FF00" fill-opacity="0.5"/>
<path d="M58.7575 47.3973C58.3313 48.3849 54.9901 47.7419 51.2948 45.9611C47.5995 44.1802 44.9494 41.9359 45.3756 40.9482C45.8019 39.9606 49.1431 40.6036 52.8384 42.3844C56.5337 44.1653 59.1838 46.4096 58.7575 47.3973Z" fill="#05FF00" fill-opacity="0.5"/>
<path d="M71.9601 53.0808C72.25 53.9529 69.4741 55.7775 65.7599 57.1561C62.0458 58.5347 58.7998 58.9452 58.5099 58.073C58.22 57.2008 60.9959 55.3763 64.7101 53.9977C68.4242 52.6191 71.6702 52.2086 71.9601 53.0808Z" fill="#ED21FF" fill-opacity="0.5"/>
<path d="M59.8725 58.617C59.4462 59.6046 56.1051 58.9616 52.4098 57.1807C48.7145 55.3999 46.0644 53.1555 46.4906 52.1679C46.9169 51.1802 50.2581 51.8233 53.9534 53.6041C57.6487 55.385 60.2988 57.6293 59.8725 58.617Z" fill="#ED21FF" fill-opacity="0.5"/>
<path d="M71.9601 64.3004C72.25 65.1726 69.4741 66.9972 65.7599 68.3758C62.0458 69.7543 58.7998 70.1649 58.5099 69.2927C58.22 68.4205 60.9959 66.5959 64.7101 65.2174C68.4242 63.8388 71.6702 63.4283 71.9601 64.3004Z" fill="#2415D9" fill-opacity="0.5"/>
<path d="M58.7575 68.7147C58.3313 69.7023 54.9901 69.0593 51.2948 67.2784C47.5995 65.4976 44.9494 63.2533 45.3756 62.2656C45.8019 61.2779 49.1431 61.921 52.8384 63.7018C56.5337 65.4827 59.1838 67.727 58.7575 68.7147Z" fill="#2415D9" fill-opacity="0.5"/>
<path d="M71.387 73.8696C71.8602 74.6563 69.5506 77.05 66.2282 79.216C62.9059 81.3819 59.8289 82.5 59.3556 81.7132C58.8823 80.9264 61.192 78.5328 64.5143 76.3668C67.8367 74.2009 70.9137 73.0828 71.387 73.8696Z" fill="#9E00D6" fill-opacity="0.5"/>
<path d="M59.4244 81.1785C59.2243 82.2362 55.8243 82.3476 51.8304 81.4271C47.8365 80.5067 44.7611 78.903 44.9613 77.8453C45.1615 76.7875 48.5614 76.6762 52.5553 77.5967C56.5492 78.5171 59.6246 80.1207 59.4244 81.1785Z" fill="#9E00D6" fill-opacity="0.5"/>
<path d="M72.0234 70.9163C72.3133 71.7884 69.5374 73.613 65.8233 74.9916C62.1091 76.3702 58.8632 76.7807 58.5733 75.9085C58.2834 75.0363 61.0593 73.2117 64.7734 71.8332C68.4876 70.4546 71.7335 70.0441 72.0234 70.9163Z" fill="#00FFF0" fill-opacity="0.5"/>
<path d="M58.7572 75.4021C58.3309 76.3897 54.9897 75.7467 51.2944 73.9659C47.5991 72.185 44.949 69.9407 45.3753 68.953C45.8015 67.9654 49.1427 68.6084 52.838 70.3892C56.5333 72.1701 59.1834 74.4144 58.7572 75.4021Z" fill="#00FFF0" fill-opacity="0.5"/>
<path d="M71.596 14.2376C71.7414 15.1492 68.7123 16.4485 64.8304 17.1397C60.9485 17.8309 57.6838 17.6522 57.5385 16.7407C57.3931 15.8291 60.4222 14.5298 64.304 13.8386C68.1859 13.1474 71.4507 13.326 71.596 14.2376Z" fill="#8A00CB" fill-opacity="0.5"/>
<path d="M57.8014 16.2746C57.2224 17.1713 54.0333 15.9374 50.6784 13.5185C47.3234 11.0997 45.073 8.41192 45.652 7.51523C46.231 6.61854 49.4201 7.85249 52.775 10.2713C56.13 12.6902 58.3804 15.378 57.8014 16.2746Z" fill="#8A00CB" fill-opacity="0.5"/>
<path d="M18.3256 25.6963C46.2912 103.986 58.8641 105.711 69.1359 119.381" stroke="#898989" stroke-width="0.8"/>
<path d="M23.4348 24.0137C24.037 24.9434 23.793 27.5709 22.8899 29.8826C21.9868 32.1942 20.7664 33.3144 20.1642 32.3848C19.562 31.4551 19.806 28.8275 20.7091 26.5159C21.6122 24.2043 22.8326 23.084 23.4348 24.0137Z" fill="#52C7B9" fill-opacity="0.5"/>
<path d="M27.8122 34.0284C28.4144 34.958 28.1705 37.5856 27.2673 39.8972C26.3642 42.2088 25.1439 43.3291 24.5417 42.3994C23.9395 41.4698 24.1834 38.8422 25.0866 36.5306C25.9897 34.219 27.21 33.0987 27.8122 34.0284Z" fill="#FF01D6" fill-opacity="0.5"/>
<path d="M20.1265 31.1012C20.5691 32.6406 18.5988 32.7531 15.7257 31.3527C12.8526 29.9522 10.1647 27.5691 9.72213 26.0298C9.27956 24.4904 11.2499 24.3779 14.123 25.7783C16.996 27.1788 19.6839 29.5619 20.1265 31.1012Z" fill="#52C7B9" fill-opacity="0.5"/>
<path d="M24.349 41.7888C24.6955 42.9938 22.8611 42.9397 20.2518 41.6678C17.6424 40.3959 15.2463 38.3879 14.8998 37.1829C14.5533 35.9778 16.3877 36.032 18.9971 37.3038C21.6064 38.5757 24.0025 40.5837 24.349 41.7888Z" fill="#FF01D6" fill-opacity="0.5"/>
<path d="M32.8226 46.1901C33.4248 47.1198 33.1808 49.7474 32.2777 52.059C31.3746 54.3706 30.1543 55.4909 29.5521 54.5612C28.9499 53.6315 29.1938 51.004 30.0969 48.6924C31.0001 46.3808 32.2204 45.2605 32.8226 46.1901Z" fill="#FF9900" fill-opacity="0.5"/>
<path d="M29.3591 53.9505C29.7056 55.1556 27.8712 55.1014 25.2619 53.8296C22.6526 52.5577 20.2564 50.5497 19.9099 49.3447C19.5635 48.1396 21.3979 48.1938 24.0072 49.4656C26.6165 50.7375 29.0127 52.7455 29.3591 53.9505Z" fill="#FF9900" fill-opacity="0.5"/>
<path d="M37.8325 58.3522C38.4347 59.2818 38.1907 61.9094 37.2876 64.221C36.3845 66.5326 35.1641 67.6529 34.5619 66.7232C33.9597 65.7936 34.2037 63.166 35.1068 60.8544C36.0099 58.5428 37.2303 57.4225 37.8325 58.3522Z" fill="#00B2FF" fill-opacity="0.5"/>
<path d="M34.3689 66.1122C34.7154 67.3173 32.881 67.2631 30.2717 65.9912C27.6623 64.7193 25.2662 62.7114 24.9197 61.5063C24.5732 60.3013 26.4076 60.3554 29.017 61.6273C31.6263 62.8992 34.0224 64.9072 34.3689 66.1122Z" fill="#00B2FF" fill-opacity="0.5"/>
<path d="M41.4191 65.9321C42.0213 66.8618 41.7774 69.4893 40.8743 71.8009C39.9711 74.1126 38.7508 75.2328 38.1486 74.3032C37.5464 73.3735 37.7904 70.7459 38.6935 68.4343C39.5966 66.1227 40.8169 65.0024 41.4191 65.9321Z" fill="#FFB5DD" fill-opacity="0.5"/>
<path d="M37.9557 73.6922C38.3022 74.8972 36.4678 74.8431 33.8584 73.5712C31.2491 72.2993 28.853 70.2913 28.5065 69.0863C28.16 67.8812 29.9944 67.9354 32.6037 69.2073C35.2131 70.4791 37.6092 72.4871 37.9557 73.6922Z" fill="#FFB5DD" fill-opacity="0.5"/>
<path d="M47.4694 77.8771C48.0716 78.8068 47.8277 81.4343 46.9246 83.7459C46.0214 86.0575 44.8011 87.1778 44.1989 86.2482C43.5967 85.3185 43.8407 82.6909 44.7438 80.3793C45.6469 78.0677 46.8672 76.9474 47.4694 77.8771Z" fill="#FF2D9E" fill-opacity="0.5"/>
<path d="M44.006 85.6371C44.3525 86.8422 42.5181 86.788 39.9087 85.5161C37.2994 84.2442 34.9033 82.2363 34.5568 81.0312C34.2103 79.8262 36.0447 79.8803 38.654 81.1522C41.2634 82.4241 43.6595 84.4321 44.006 85.6371Z" fill="#FF2D9E" fill-opacity="0.5"/>
<path d="M104.819 52.6236C95.329 62.6336 68.0252 99.9639 67.5421 119.586" stroke="#898989" stroke-width="0.8"/>
<path d="M99.2156 48.1223C98.6152 48.7345 98.5379 51.1001 99.043 53.4059C99.5481 55.7117 100.444 57.0846 101.045 56.4723C101.645 55.86 101.722 53.4945 101.217 51.1887C100.712 48.8829 99.8161 47.51 99.2156 48.1223Z" fill="#7752C7" fill-opacity="0.5"/>
<path d="M93.7087 55.5166C93.2936 56.2685 93.8153 58.5026 94.874 60.5066C95.9327 62.5107 97.1276 63.5257 97.5427 62.7738C97.9579 62.0219 97.4362 59.7877 96.3774 57.7837C95.3187 55.7797 94.1239 54.7647 93.7087 55.5166Z" fill="#0066FF" fill-opacity="0.5"/>
<path d="M100.507 56.5107C100.138 57.3393 102.401 57.7278 105.563 57.3785C108.724 57.0292 111.586 56.0744 111.956 55.2458C112.325 54.4172 110.062 54.0286 106.9 54.3779C103.739 54.7272 100.877 55.6821 100.507 56.5107Z" fill="#7752C7" fill-opacity="0.5"/>
<path d="M97.046 61.9304C96.4121 62.7329 98.2834 63.7229 101.226 64.1416C104.168 64.5603 107.067 64.2492 107.701 63.4466C108.335 62.6441 106.463 61.6541 103.521 61.2354C100.579 60.8167 97.6798 61.1279 97.046 61.9304Z" fill="#0066FF" fill-opacity="0.5"/>
<path d="M87.8842 59.4955C87.3834 60.1926 87.8088 62.9165 88.8345 65.5795C89.8601 68.2426 91.0976 69.8363 91.5985 69.1392C92.0993 68.4422 91.6739 65.7183 90.6482 63.0552C89.6226 60.3922 88.3851 58.7985 87.8842 59.4955Z" fill="#00FF85" fill-opacity="0.5"/>
<path d="M91.5191 68.6219C90.8584 69.4022 92.176 70.3638 94.4622 70.7696C96.7484 71.1755 99.1374 70.872 99.7981 70.0917C100.459 69.3114 99.1412 68.3498 96.855 67.944C94.5688 67.5381 92.1799 67.8416 91.5191 68.6219Z" fill="#00FF85" fill-opacity="0.5"/>
<path d="M82.1628 70.8094C81.7426 71.5584 82.2835 73.8618 83.3709 75.9542C84.4583 78.0465 85.6805 79.1355 86.1007 78.3864C86.5209 77.6373 85.9801 75.3339 84.8926 73.2416C83.8052 71.1492 82.5831 70.0603 82.1628 70.8094Z" fill="#226E8E" fill-opacity="0.5"/>
<path d="M86.2353 77.2819C85.4134 77.8877 86.4751 79.1292 88.6066 80.0548C90.738 80.9803 93.1321 81.2395 93.954 80.6336C94.7758 80.0278 93.7141 78.7863 91.5827 77.8607C89.4512 76.9352 87.0571 76.676 86.2353 77.2819Z" fill="#226E8E" fill-opacity="0.5"/>
<path d="M77.4582 77.653C77.1729 78.4638 78.101 80.6386 79.5312 82.5106C80.9614 84.3825 82.3521 85.2427 82.6374 84.4319C82.9228 83.6211 81.9946 81.4463 80.5644 79.5743C79.1342 77.7023 77.7435 76.8421 77.4582 77.653Z" fill="#760140" fill-opacity="0.5"/>
<path d="M82.0658 84.5079C81.3477 85.2352 82.5886 86.2951 84.8373 86.8755C87.086 87.4558 89.491 87.3367 90.209 86.6095C90.9271 85.8823 89.6862 84.8223 87.4375 84.2419C85.1888 83.6616 82.7838 83.7807 82.0658 84.5079Z" fill="#760140" fill-opacity="0.5"/>
<path d="M73.2359 85.3984C72.8191 86.1494 73.3705 88.4503 74.4674 90.5376C75.5643 92.6249 76.7914 93.7082 77.2082 92.9572C77.625 92.2062 77.0737 89.9053 75.9767 87.818C74.8798 85.7307 73.6527 84.6474 73.2359 85.3984Z" fill="#E1E600" fill-opacity="0.5"/>
<path d="M77.0795 92.1326C76.3874 92.885 77.6648 93.9001 79.9325 94.4001C82.2002 94.9001 84.5995 94.6955 85.2915 93.9432C85.9836 93.1908 84.7062 92.1757 82.4385 91.6757C80.1708 91.1757 77.7715 91.3803 77.0795 92.1326Z" fill="#E1E600" fill-opacity="0.5"/>
</svg>
