<svg width="127" height="116" viewBox="0 0 127 116" fill="none" xmlns="http://www.w3.org/2000/svg">
<path d="M93.8526 48.6975C91.5436 55.5104 84.1488 59.1616 77.3359 56.8526C70.5229 54.5436 66.8718 47.1488 69.1808 40.3359C71.4898 33.523 78.8845 29.8718 85.6975 32.1808C92.5104 34.4898 96.1615 41.8846 93.8526 48.6975Z" fill="#9BE4EE" fill-opacity="0.75"/>
<path d="M71.5017 115C63.8733 85.4426 88.0235 79.0952 83.4087 57" stroke="#898989"/>
<path d="M64.9993 44.3642C66.2534 50.6405 62.1822 56.7452 55.9059 57.9993C49.6296 59.2534 43.5249 55.1822 42.2708 48.9059C41.0167 42.6296 45.0879 36.5249 51.3642 35.2708C57.6405 34.0167 63.7452 38.0879 64.9993 44.3642Z" fill="#23D4EC" fill-opacity="0.75"/>
<path d="M69.759 115C78.4992 84.7666 59.0652 79.5204 56 58" stroke="#898989"/>
<path d="M28.894 51.4946C33.2597 57.2906 32.1002 65.5283 26.3042 69.894C20.5082 74.2597 12.2705 73.1002 7.90483 67.3042C3.53911 61.5082 4.69858 53.2705 10.4946 48.9048C16.2906 44.5391 24.5283 45.6986 28.894 51.4946Z" fill="#8DF1FF" fill-opacity="0.75"/>
<path d="M61.1065 115C69.6859 76.2473 47.2557 64.2796 31 62" stroke="#898989"/>
<path d="M41.5993 36.6124C44.0153 42.4734 41.2225 49.1833 35.3614 51.5993C29.5004 54.0152 22.7905 51.2225 20.3745 45.3614C17.9585 39.5003 20.7513 32.7905 26.6124 30.3745C32.4734 27.9585 39.1833 30.7513 41.5993 36.6124Z" fill="#69B6C0" fill-opacity="0.75"/>
<path d="M57.4984 115C71.155 81.0537 40.7894 75.1633 36 51" stroke="#898989"/>
<path d="M69.1545 14.8894C69.9143 23.1126 63.864 30.3947 55.6408 31.1545C47.4176 31.9142 40.1354 25.8639 39.3757 17.6407C38.6159 9.41756 44.6662 2.13543 52.8894 1.37566C61.1126 0.615894 68.3947 6.66619 69.1545 14.8894Z" fill="#32E6FF" fill-opacity="0.75"/>
<path d="M66.2042 115C75.9744 86.4618 57.0001 55.7059 57 31" stroke="#898989"/>
<path d="M116.267 76.0045C110.791 82.7292 100.901 83.7419 94.1762 78.2664C87.4515 72.791 86.4388 62.9008 91.9143 56.1761C97.3897 49.4514 107.28 48.4387 114.005 53.9142C120.729 59.3896 121.742 69.2798 116.267 76.0045Z" fill="#6BCFDD" fill-opacity="0.75"/>
<path d="M55.8276 114.975C47.5 86.9651 73.5751 69.8007 88.5 68.6566" stroke="#898989"/>
<path d="M97.6306 27.9987C97.0108 35.5949 90.3504 41.2504 82.7542 40.6306C75.158 40.0108 69.5025 33.3504 70.1223 25.7542C70.7421 18.158 77.4025 12.5024 84.9987 13.1222C92.5949 13.7421 98.2504 20.4025 97.6306 27.9987Z" fill="#6DEEFF" fill-opacity="0.75"/>
<path d="M63.9096 115C37.4382 70.8824 86.1747 67.5735 82.8349 40" stroke="#898989"/>
</svg>
