<svg width="120" height="120" viewBox="0 0 120 120" fill="none" xmlns="http://www.w3.org/2000/svg">
<path d="M106.454 21.7631C110.294 26.3377 97.6588 43.2573 85.249 53.6687C72.8392 64.0801 59.6669 68.8118 55.8278 64.2372C51.9887 59.6627 58.9366 47.5141 71.3464 37.1027C83.7562 26.6913 102.615 17.1886 106.454 21.7631Z" fill="#6F5CA7" fill-opacity="0.5"/>
<path d="M72.1404 1.87745C78.0218 2.91433 79.2197 23.9974 76.4064 39.95C73.593 55.9026 66.5446 67.9941 60.6633 66.9573C54.7819 65.9204 52.2948 52.1477 55.1081 36.1951C57.9214 20.2425 66.2591 0.840575 72.1404 1.87745Z" fill="#436393" fill-opacity="0.5"/>
<path d="M33.5471 8.74669C38.7192 5.76102 53.1907 21.141 61.2911 35.169C69.3914 49.197 71.7652 62.9893 66.593 65.9749C61.4209 68.9606 50.6614 60.009 42.5611 45.981C34.4607 31.953 28.3749 11.7324 33.5471 8.74669Z" fill="#6392DA" fill-opacity="0.5"/>
<path d="M5.92813 37.0034C7.97097 31.3917 28.9426 33.8716 44.1648 39.4111C59.3869 44.9507 70.0708 53.9906 68.028 59.6024C65.9852 65.2142 51.9891 65.2727 36.767 59.7332C21.5448 54.1937 3.88529 42.6152 5.92813 37.0034Z" fill="#396CB8" fill-opacity="0.5"/>
<path d="M3.6988 78.9695C1.65595 73.3577 19.3155 61.7792 34.5376 56.2397C49.7598 50.7002 63.7558 50.7587 65.7987 56.3705C67.8415 61.9823 57.1576 71.0222 41.9354 76.5618C26.7133 82.1013 5.74164 84.5813 3.6988 78.9695Z" fill="#3946B8" fill-opacity="0.5"/>
<path d="M30.6635 110.286C25.4914 107.3 31.5771 87.0792 39.6775 73.0512C47.7778 59.0232 58.5373 50.0716 63.7095 53.0573C68.8816 56.043 66.5078 69.8353 58.4075 83.8633C50.3072 97.8913 35.8357 113.271 30.6635 110.286Z" fill="#3E4CC6" fill-opacity="0.5"/>
<path d="M72.1264 117.957C66.245 118.994 57.9074 99.5922 55.0941 83.6396C52.2807 67.687 54.7679 53.9143 60.6492 52.8774C66.5306 51.8406 73.579 63.9321 76.3923 79.8847C79.2056 95.8373 78.0077 116.92 72.1264 117.957Z" fill="#222E98" fill-opacity="0.5"/>
<path d="M105.467 97.1014C101.628 101.676 82.7685 92.1732 70.3588 81.7618C57.949 71.3504 51.0011 59.2019 54.8402 54.6273C58.6793 50.0528 71.8516 54.7845 84.2614 65.1959C96.6712 75.6073 109.306 92.5269 105.467 97.1014Z" fill="#424B9F" fill-opacity="0.5"/>
<path d="M119.479 58.918C119.479 64.9931 98.9508 69.918 82.7726 69.918C66.5945 69.918 53.4795 64.9931 53.4795 58.918C53.4795 52.8429 66.5945 47.918 82.7726 47.918C98.9508 47.918 119.479 52.8429 119.479 58.918Z" fill="#463184" fill-opacity="0.5"/>
</svg>
