<svg width="113" height="108" viewBox="0 0 113 108" fill="none" xmlns="http://www.w3.org/2000/svg">
<path d="M48.6701 7.39614C47.3536 6.20507 43.8455 6.3088 42.4201 7.45943C36.4455 12.2823 23.4959 21.2604 18.9796 27.1409C13.051 34.8602 18.7645 44.934 33.1458 47.752C47.5271 50.57 62.1906 44.9825 62.2746 34.3911C63.5787 21.9479 57.8544 15.7057 48.6701 7.39614Z" fill="#FE83E3" fill-opacity="0.5"/>
<path d="M14.3364 46.5852C12.7835 47.5462 11.8768 50.886 12.6013 52.5066C15.6379 59.2994 20.7652 73.6713 25.264 79.3373C31.1696 86.775 42.7449 83.7702 49.6595 70.8493C56.5741 57.9283 55.2826 42.7425 44.8644 40.1454C32.9713 35.9551 25.1706 39.8809 14.3364 46.5852Z" fill="#F83D96" fill-opacity="0.5"/>
<path d="M87.5718 77.8311C89.3341 78.3038 92.3891 76.6743 93.0755 75.0351C95.9526 68.1644 102.927 54.573 103.983 47.4095C105.369 38.006 95.2658 31.6313 81.118 35.4526C66.9702 39.2739 56.7804 50.6281 62.0083 60.0008C67.0828 71.5408 75.2775 74.5332 87.5718 77.8311Z" fill="#FF506F" fill-opacity="0.5"/>
<path d="M44.0284 89.6357C44.6438 91.2945 47.8105 92.8206 49.6136 92.4619C57.1712 90.9585 72.8646 89.0026 79.6185 85.8929C88.4845 81.8107 88.0982 70.281 76.627 61.161C65.1559 52.041 49.5183 50.2127 44.5098 59.526C37.5543 69.9119 39.735 78.0632 44.0284 89.6357Z" fill="#FB3939" fill-opacity="0.5"/>
<path d="M94.7307 29.4304C95.7085 27.9039 95.0675 24.4898 93.7091 23.3235C88.015 18.4352 77.1349 7.54609 70.617 4.29655C62.0609 0.0308772 52.9588 7.63384 52.3738 22.2769C51.7889 36.9201 59.5734 50.1635 70.0778 48.1339C82.6036 46.9295 87.9086 40.0801 94.7307 29.4304Z" fill="#FA76B5" fill-opacity="0.5"/>
</svg>
