<svg width="399" height="56" viewBox="0 0 399 56" fill="none" xmlns="http://www.w3.org/2000/svg">
<path d="M73.1 37.42C71.6813 37.42 70.3747 37.0187 69.18 36.216C67.9853 35.4133 67.0333 34.2467 66.324 32.716C65.6147 31.1667 65.26 29.328 65.26 27.2C65.26 25.0533 65.624 23.2147 66.352 21.684C67.0987 20.1347 68.1347 18.968 69.46 18.184C70.804 17.3813 72.3533 16.98 74.108 16.98C75.172 16.98 76.2453 17.288 77.328 17.904C77.7387 18.128 78.1493 18.4267 78.56 18.8C78.8773 18.3147 79.204 17.932 79.54 17.652C79.876 17.4093 80.0627 17.2787 80.1 17.26H80.8V22.58H79.68C79.4373 21.684 79.0733 20.872 78.588 20.144C78.14 19.4347 77.58 18.8467 76.908 18.38C76.2547 17.9133 75.4987 17.68 74.64 17.68C73.352 17.68 72.2787 18.4267 71.42 19.92C70.58 21.4133 70.16 23.84 70.16 27.2C70.16 30.56 70.5333 32.94 71.28 34.34C72.0453 35.74 73.0253 36.44 74.22 36.44C74.9107 36.44 75.536 36.0667 76.096 35.32C76.3013 35.04 76.516 34.6667 76.74 34.2V27.76L75.06 27.34V26.92H83.04V27.34L81.36 27.76V37.14H80.94C79.5773 37.14 78.5413 36.7667 77.832 36.02C77.5147 35.684 77.2907 35.3107 77.16 34.9C76.8987 35.3667 76.5907 35.7867 76.236 36.16C75.396 37 74.3507 37.42 73.1 37.42ZM82.772 36.58L85.012 35.74L92.712 17.12H93.552L101.532 36.16L102.932 36.58V37H99.572C98.6014 37 97.808 36.7853 97.192 36.356C96.576 35.908 96.1187 35.3293 95.82 34.62L94.392 31.26H87.7L85.852 35.74L87.952 36.58V37H82.772V36.58ZM87.98 30.56H94.112L91.032 23.196L87.98 30.56ZM103.763 36.58L105.443 36.16V18.24L103.763 17.82V17.4H111.183C114.357 17.4 116.643 17.8853 118.043 18.856C119.443 19.808 120.143 21.1427 120.143 22.86C120.143 24.0173 119.835 24.96 119.219 25.688C118.603 26.3973 117.81 26.9293 116.839 27.284C115.813 27.676 114.721 27.8813 113.563 27.9V28.04C114.254 28.0773 114.861 28.18 115.383 28.348C116.69 28.7587 117.577 29.496 118.043 30.56L120.563 36.16L121.963 36.58V37H118.043C116.513 37 115.393 36.2067 114.683 34.62L111.883 28.32H110.063V36.16L112.023 36.58V37H103.763V36.58ZM111.183 27.62C112.49 27.62 113.517 27.2093 114.263 26.388C115.01 25.5667 115.383 24.3907 115.383 22.86C115.383 21.3293 115.01 20.1533 114.263 19.332C113.517 18.5107 112.49 18.1 111.183 18.1H110.063V27.62H111.183ZM123.369 36.58L125.049 36.16V18.24L123.369 17.82V17.4H130.509C133.85 17.4 136.407 18.2587 138.181 19.976C139.973 21.6933 140.869 24.1013 140.869 27.2C140.869 30.2987 139.973 32.7067 138.181 34.424C136.407 36.1413 133.85 37 130.509 37H123.369V36.58ZM130.509 36.3C132.245 36.3 133.589 35.6 134.541 34.2C135.493 32.7813 135.969 30.448 135.969 27.2C135.969 23.952 135.493 21.628 134.541 20.228C133.589 18.8093 132.245 18.1 130.509 18.1H129.669V36.3H130.509ZM143.384 36.58L145.064 36.16V18.24L143.384 17.82V17.4H158.364V22.44H157.524C157.17 22.16 156.862 21.8053 156.6 21.376C156.003 20.368 155.704 19.276 155.704 18.1H149.684V26.92H152.904C153.035 26.2107 153.278 25.548 153.632 24.932C153.782 24.652 153.959 24.3813 154.164 24.12H155.004V30.42H154.164C153.959 30.1587 153.782 29.888 153.632 29.608C153.278 28.992 153.035 28.3293 152.904 27.62H149.684V36.3H156.264C156.264 35.124 156.563 34.032 157.16 33.024C157.422 32.5947 157.73 32.24 158.084 31.96H158.924V37H143.384V36.58ZM163.951 22.16V35.74L166.191 36.58V37H160.871V36.58L163.111 35.74V18.38L161.151 17.82V17.4H164.091C165.081 17.4 165.855 17.5773 166.415 17.932C166.975 18.2867 167.507 18.7627 168.011 19.36L176.971 29.86V18.66L174.731 17.82V17.4H180.051V17.82L177.811 18.66V37.42H176.971L163.951 22.16ZM198.965 37.42C197.136 37.42 195.531 37.028 194.149 36.244C192.787 35.4413 191.732 34.2747 190.985 32.744C190.239 31.2133 189.865 29.3653 189.865 27.2C189.865 25.0347 190.239 23.1867 190.985 21.656C191.732 20.1253 192.787 18.968 194.149 18.184C195.531 17.3813 197.136 16.98 198.965 16.98C200.795 16.98 202.391 17.3813 203.753 18.184C205.135 18.968 206.199 20.1253 206.945 21.656C207.692 23.1867 208.065 25.0347 208.065 27.2C208.065 29.3653 207.692 31.2133 206.945 32.744C206.199 34.2747 205.135 35.4413 203.753 36.244C202.391 37.028 200.795 37.42 198.965 37.42ZM198.965 36.86C199.693 36.86 200.365 36.552 200.981 35.936C201.616 35.32 202.139 34.2933 202.549 32.856C202.96 31.4187 203.165 29.5333 203.165 27.2C203.165 24.8667 202.96 22.9813 202.549 21.544C202.139 20.1067 201.616 19.08 200.981 18.464C200.365 17.848 199.693 17.54 198.965 17.54C198.237 17.54 197.556 17.848 196.921 18.464C196.305 19.08 195.792 20.1067 195.381 21.544C194.971 22.9813 194.765 24.8667 194.765 27.2C194.765 29.5333 194.971 31.4187 195.381 32.856C195.792 34.2933 196.305 35.32 196.921 35.936C197.556 36.552 198.237 36.86 198.965 36.86ZM210.732 36.58L212.412 36.16V18.24L210.732 17.82V17.4H225.712V22.44H224.872C224.517 22.16 224.209 21.8053 223.948 21.376C223.351 20.368 223.052 19.276 223.052 18.1H217.032V26.92H220.252C220.383 26.2107 220.625 25.548 220.98 24.932C221.129 24.652 221.307 24.3813 221.512 24.12H222.352V30.42H221.512C221.307 30.1587 221.129 29.888 220.98 29.608C220.625 28.992 220.383 28.3293 220.252 27.62H217.032V36.16L218.712 36.58V37H210.732V36.58ZM239.73 36.58L241.41 36.16V29.72L235.67 18.24L234.27 17.82V17.4H237.77C238.74 17.4 239.515 17.6053 240.094 18.016C240.691 18.4267 241.176 19.0147 241.55 19.78L245.694 28.04L249.95 18.66L247.85 17.82V17.4H253.17V17.82L250.93 18.66L246.03 29.44V36.16L247.71 36.58V37H239.73V36.58ZM262.403 37.42C260.574 37.42 258.968 37.028 257.587 36.244C256.224 35.4413 255.17 34.2747 254.423 32.744C253.676 31.2133 253.303 29.3653 253.303 27.2C253.303 25.0347 253.676 23.1867 254.423 21.656C255.17 20.1253 256.224 18.968 257.587 18.184C258.968 17.3813 260.574 16.98 262.403 16.98C264.232 16.98 265.828 17.3813 267.191 18.184C268.572 18.968 269.636 20.1253 270.383 21.656C271.13 23.1867 271.503 25.0347 271.503 27.2C271.503 29.3653 271.13 31.2133 270.383 32.744C269.636 34.2747 268.572 35.4413 267.191 36.244C265.828 37.028 264.232 37.42 262.403 37.42ZM262.403 36.86C263.131 36.86 263.803 36.552 264.419 35.936C265.054 35.32 265.576 34.2933 265.987 32.856C266.398 31.4187 266.603 29.5333 266.603 27.2C266.603 24.8667 266.398 22.9813 265.987 21.544C265.576 20.1067 265.054 19.08 264.419 18.464C263.803 17.848 263.131 17.54 262.403 17.54C261.675 17.54 260.994 17.848 260.359 18.464C259.743 19.08 259.23 20.1067 258.819 21.544C258.408 22.9813 258.203 24.8667 258.203 27.2C258.203 29.5333 258.408 31.4187 258.819 32.856C259.23 34.2933 259.743 35.32 260.359 35.936C260.994 36.552 261.675 36.86 262.403 36.86ZM283.83 37.42C281.067 37.42 278.976 36.776 277.558 35.488C276.139 34.1813 275.43 32.352 275.43 30V18.24L273.75 17.82V17.4H281.73V17.82L280.05 18.24V30C280.05 32.408 280.423 34.1347 281.17 35.18C281.916 36.2067 282.99 36.72 284.39 36.72C285.248 36.72 286.06 36.4493 286.826 35.908C287.61 35.348 288.235 34.564 288.702 33.556C289.187 32.5293 289.43 31.344 289.43 30V18.66L287.19 17.82V17.4H292.51V17.82L290.27 18.66V30C290.27 31.512 289.99 32.828 289.43 33.948C288.87 35.068 288.104 35.9267 287.134 36.524C286.163 37.1213 285.062 37.42 283.83 37.42ZM294.048 36.58L295.728 36.16V18.24L294.048 17.82V17.4H301.468C304.642 17.4 306.928 17.8853 308.328 18.856C309.728 19.808 310.428 21.1427 310.428 22.86C310.428 24.0173 310.12 24.96 309.504 25.688C308.888 26.3973 308.095 26.9293 307.124 27.284C306.098 27.676 305.006 27.8813 303.848 27.9V28.04C304.539 28.0773 305.146 28.18 305.668 28.348C306.975 28.7587 307.862 29.496 308.328 30.56L310.848 36.16L312.248 36.58V37H308.328C306.798 37 305.678 36.2067 304.968 34.62L302.168 28.32H300.348V36.16L302.308 36.58V37H294.048V36.58ZM301.468 27.62C302.775 27.62 303.802 27.2093 304.548 26.388C305.295 25.5667 305.668 24.3907 305.668 22.86C305.668 21.3293 305.295 20.1533 304.548 19.332C303.802 18.5107 302.775 18.1 301.468 18.1H300.348V27.62H301.468ZM324.022 20.9V35.74L326.262 36.58V37H320.942V36.58L323.182 35.74V18.24L321.502 17.82V17.4H325.002C325.972 17.4 326.738 17.6053 327.298 18.016C327.876 18.408 328.371 18.996 328.782 19.78L334.886 31.456L339.562 19.78C339.879 18.9587 340.308 18.3613 340.85 17.988C341.391 17.596 342.222 17.4 343.342 17.4H346.282V17.82L344.602 18.24V36.16L346.282 36.58V37H338.302V36.58L339.982 36.16V20.9L333.402 37.28H332.562L324.022 20.9ZM348.818 37V36.58L350.498 36.16V18.24L348.818 17.82V17.4H356.798V17.82L355.118 18.24V36.16L356.798 36.58V37H348.818ZM361.838 22.16V35.74L364.078 36.58V37H358.758V36.58L360.998 35.74V18.38L359.038 17.82V17.4H361.978C362.967 17.4 363.742 17.5773 364.302 17.932C364.862 18.2867 365.394 18.7627 365.898 19.36L374.858 29.86V18.66L372.618 17.82V17.4H377.938V17.82L375.698 18.66V37.42H374.858L361.838 22.16ZM379.771 36.58L381.451 36.16V18.24L379.771 17.82V17.4H386.911C390.252 17.4 392.81 18.2587 394.583 19.976C396.375 21.6933 397.271 24.1013 397.271 27.2C397.271 30.2987 396.375 32.7067 394.583 34.424C392.81 36.1413 390.252 37 386.911 37H379.771V36.58ZM386.911 36.3C388.647 36.3 389.991 35.6 390.943 34.2C391.895 32.7813 392.371 30.448 392.371 27.2C392.371 23.952 391.895 21.628 390.943 20.228C389.991 18.8093 388.647 18.1 386.911 18.1H386.071V36.3H386.911Z" fill="#999999"/>
<path d="M8.00222 36.9004C9.19147 39.2252 17.3206 36.0912 22.9672 32.1363C28.6138 28.1813 32.2272 23.0905 31.0379 20.7658C29.8487 18.441 24.3071 19.7626 18.6605 23.7175C13.0139 27.6725 6.81296 34.5757 8.00222 36.9004Z" fill="#B7ABFF" fill-opacity="0.66"/>
<path d="M0.0344188 22.2414C0.0344188 25.3811 9.71128 27.9264 17.3374 27.9264C24.9635 27.9264 31.1456 25.3811 31.1456 22.2414C31.1456 19.1017 24.9635 16.5564 17.3374 16.5564C9.71128 16.5564 0.0344188 19.1017 0.0344188 22.2414Z" fill="#8CB3FF" fill-opacity="0.66"/>
<path d="M20.9958 54.405C23.5494 55.286 28.3346 45.224 30.4743 36.7317C32.614 28.2393 32.2784 20.6408 29.7248 19.7599C27.1712 18.8789 23.3665 25.0492 21.2268 33.5416C19.0871 42.0339 18.4422 53.5241 20.9958 54.405Z" fill="#EF8CFF" fill-opacity="0.66"/>
<path d="M37.9225 46.3506C39.8287 45.39 38.4132 36.5676 36.08 30.2285C33.7468 23.8894 30.3102 19.5293 28.404 20.4899C26.4979 21.4505 26.8441 27.3681 29.1773 33.7071C31.5105 40.0462 36.0164 47.3112 37.9225 46.3506Z" fill="#FF8C8C" fill-opacity="0.66"/>
<path d="M44.4529 35.7514C45.5771 34.1248 41.4751 28.062 37.5242 24.3233C33.5733 20.5846 29.459 18.8724 28.3348 20.4991C27.2106 22.1257 29.5021 26.4752 33.453 30.2139C37.4039 33.9526 43.3287 37.3781 44.4529 35.7514Z" fill="#FFC38C" fill-opacity="0.66"/>
<path d="M55.9686 23.7297C56.0049 20.5914 46.362 17.8938 38.7394 17.7729C31.1169 17.652 24.9081 20.098 24.8717 23.2363C24.8353 26.3746 30.9852 29.0167 38.6078 29.1377C46.2303 29.2586 55.9322 26.868 55.9686 23.7297Z" fill="#FFF48C" fill-opacity="0.66"/>
<path d="M47.7196 7.49998C46.6106 5.45109 39.3968 8.46992 34.4203 12.1579C29.4437 15.846 26.3085 20.4966 27.4174 22.5455C28.5264 24.5944 33.4597 23.2656 38.4362 19.5776C43.4127 15.8896 48.8285 9.54887 47.7196 7.49998Z" fill="#B1FF8C" fill-opacity="0.66"/>
<path d="M29.1001 -7.96597e-05C27.0288 -7.97657e-05 25.3497 8.74819 25.3497 15.6425C25.3497 22.5368 27.0288 28.1257 29.1001 28.1257C31.1714 28.1257 32.8505 22.5368 32.8505 15.6425C32.8505 8.74819 31.1714 -7.95538e-05 29.1001 -7.96597e-05Z" fill="#8CFFB3" fill-opacity="0.66"/>
<path d="M11.8498 4.72362C10.5591 6.45933 14.8669 13.318 19.0865 17.6143C23.306 21.9106 27.773 23.9864 29.0637 22.2507C30.3545 20.515 27.9802 15.6251 23.7607 11.3288C19.5412 7.03247 13.1406 2.98791 11.8498 4.72362Z" fill="#8CFFFF" fill-opacity="0.66"/>
</svg>
