<svg width="151" height="116" viewBox="0 0 151 116" fill="none" xmlns="http://www.w3.org/2000/svg">
<path d="M42.3556 109.212C75.1896 123.074 83.4219 112.302 85.0866 103.859C86.7513 95.4162 68.8889 83.8104 45.1899 77.9365C22.3077 72.2651 14.0952 73.6389 0.718006 81.6991C0.298206 81.9521 0.488104 82.6841 0.980441 82.7768C12.0032 84.8539 28.1356 103.209 42.3556 109.212Z" fill="#95FF56" fill-opacity="0.5"/>
<path d="M45.1383 92.3847C55.7606 112.89 84.0122 118.933 88.0351 111.803C92.058 104.674 78.8693 87.0544 58.5773 72.4492C39.0235 58.3753 30.9847 56.4337 16.2497 58.6453C15.7754 58.7165 15.7183 59.4459 16.1673 59.6625C25.6891 64.2561 34.4972 71.8432 45.1383 92.3847Z" fill="#55BB18" fill-opacity="0.5"/>
<path d="M53.3059 81.4529C61.0121 118.496 84.2753 119.443 87.417 111.781C93.0952 97.9324 86.5306 89.159 71.404 60.8812C63.0682 45.2982 52.8773 34.7461 40.0885 25.8272C39.6366 25.5121 39.0945 26.2083 39.4161 26.6808C50.7659 43.3553 49.7823 64.5153 53.3059 81.4529Z" fill="#4DAD14" fill-opacity="0.5"/>
<path d="M69.2743 63.3062C56.9834 104.379 76.5335 119.778 83.154 114.229C95.1197 104.199 93.9492 91.5224 95.3711 54.4177C96.1545 33.976 92.7719 17.3051 86.3189 0.618688C86.1154 0.0925404 85.2645 0.393755 85.2961 0.975641C86.5687 24.3872 74.898 44.5132 69.2743 63.3062Z" fill="#54972C" fill-opacity="0.5"/>
<path d="M81.3806 72.4814C56.6048 92.372 69.7856 114.358 77.7463 114.654C92.1343 115.188 95.1639 106.064 108.541 82.2725C115.955 69.0867 118.208 55.9002 117.589 40.823C117.566 40.2526 116.776 40.0909 116.575 40.6067C110.187 57.0031 92.7417 63.3605 81.3806 72.4814Z" fill="#2D680A" fill-opacity="0.5"/>
<path d="M101.482 76.0064C69.0036 84.1525 68.1817 109.954 74.9013 113.524C87.0458 119.975 94.7364 112.787 119.526 96.3119C133.211 87.2171 142.468 76.0016 150.293 61.8743C150.577 61.3605 149.972 60.7938 149.541 61.1606C134.918 73.6064 116.345 72.2785 101.482 76.0064Z" fill="#1A4202" fill-opacity="0.5"/>
</svg>
