<svg width="114" height="113" viewBox="0 0 114 113" fill="none" xmlns="http://www.w3.org/2000/svg">
<path d="M63.8175 33.6205L46.5453 48.0295L38.6306 56.2956L29.9826 66.8565L22.8375 78.1467L13.8769 95.4189L7.55185 112.351" stroke="#898989"/>
<path d="M29.1207 90.2577C18.9549 89.037 13.661 95.8184 14.3919 94.9631C15.1228 94.1078 27.9409 102.139 41.9428 100.43C47.9916 99.6913 52.2464 95.5012 56.6803 91.2407C50.0201 94.3434 34.8689 90.948 29.1207 90.2577Z" fill="#0D2101" fill-opacity="0.5"/>
<path d="M17.0661 72.8564C20.9282 83.1441 16.2879 89.5903 16.8559 88.7122C17.424 87.8341 6.73228 75.815 4.45355 61.1474C3.46915 54.811 6.06851 49.8151 8.6822 44.6246C7.71283 51.9375 14.8822 67.0391 17.0661 72.8564Z" fill="#82A719" fill-opacity="0.5"/>
<path d="M45.299 72.6935C32.4336 69.9577 23.5681 75.8419 24.7684 75.1093C25.9688 74.3767 40.2954 84.2234 59.0057 84.6504C67.0885 84.8348 73.8458 81.3475 80.8567 77.8178C71.2883 79.8709 52.5738 74.2405 45.299 72.6935Z" fill="#2A4918" fill-opacity="0.5"/>
<path d="M32.8637 37.8416C37.1481 24.0157 32.6741 13.3873 33.2186 14.8173C33.7631 16.2472 22.4921 30.6798 19.6562 51.2904C18.4312 60.194 20.8877 68.1537 23.3518 76.3994C22.6309 65.5374 30.4411 45.6595 32.8637 37.8416Z" fill="#829926" fill-opacity="0.5"/>
<path d="M48.1125 58.4585C37.9477 57.1611 32.1765 63.4063 32.9681 62.6196C33.7596 61.8329 46.1583 69.5264 60.3773 68.1495C66.5198 67.5547 71.0771 63.7113 75.8193 59.805C68.9083 62.5963 53.8602 59.1922 48.1125 58.4585Z" fill="#0B1D00" fill-opacity="0.5"/>
<path d="M45.0688 38.7779C44.0278 52.1188 36.5528 58.1156 37.5092 57.2773C38.4655 56.439 33.71 38.7852 38.3131 20.8446C40.3017 13.0943 45.1315 8.11307 50.0655 2.9086C45.7358 11.1489 45.6574 31.2342 45.0688 38.7779Z" fill="#B6D04E" fill-opacity="0.5"/>
<path d="M66.0439 46.8052C55.2508 43.1119 47.0938 47.5224 48.1923 46.9826C49.2908 46.4428 60.68 56.6434 76.7056 58.8349C83.6285 59.7816 89.7535 57.313 96.0999 54.8311C87.6942 55.7438 72.1469 48.8936 66.0439 46.8052Z" fill="#1F3E0E" fill-opacity="0.5"/>
<path d="M66.5296 18.9927C72.2719 10.5977 69.8405 2.59708 70.117 3.66205C70.3935 4.72702 58.4077 12.1362 52.9771 25.358C50.6311 31.0698 51.664 36.8835 52.6629 42.8899C53.5724 35.4806 63.2827 23.7397 66.5296 18.9927Z" fill="#8CAA14" fill-opacity="0.5"/>
<path d="M78.559 37.7721C66.3034 40.8654 61.5761 32.7498 62.2469 33.7641C62.9176 34.7784 79.8192 22.3649 95.943 22.5508C102.908 22.6311 106.989 27.5011 111.265 32.437C96.372 32.214 86.0125 35.8908 78.559 37.7721Z" fill="#46680F" fill-opacity="0.5"/>
</svg>
